M48
INCH
T1C0.0300
T2C0.0315
T3C0.0394
T4C0.0394
T5C0.0433
T6C0.0591
T7C0.1378
T8C0.1378
%
G90
G05
T1
X4.4821Y-1.8344
X4.4821Y-1.9344
X4.6321Y-2.2344
X4.6321Y-2.3344
X4.6321Y-2.4344
X4.6321Y-2.5344
X5.2321Y-2.2344
X5.2321Y-2.3344
X5.2321Y-2.4344
X5.2321Y-2.5344
T2
X0.9177Y-1.5551
X0.9965Y-1.5551
X1.0752Y-1.5551
X1.1024Y-1.9441
X1.1024Y-2.0441
X1.1024Y-2.1441
X1.1024Y-2.2441
X1.1024Y-2.3441
X1.1024Y-2.4441
X1.1024Y-2.5441
X1.1024Y-2.6441
X1.1539Y-1.5551
X1.4173Y-2.1063
X1.4173Y-2.3031
X1.5748Y-2.1063
X1.5748Y-2.3031
X1.7323Y-2.0047
X1.7323Y-2.4047
X1.8898Y-2.0047
X1.8898Y-2.4047
X2.0541Y-2.0551
X2.0541Y-2.1551
X2.0541Y-2.2551
X2.0541Y-2.3551
X2.3541Y-2.0551
X2.3541Y-2.1551
X2.3541Y-2.2551
X2.3541Y-2.3551
X2.8709Y-3.8189
X2.9211Y-3.1717
X2.9211Y-3.5717
X2.9709Y-3.8189
X3.1283Y-3.8189
X3.1785Y-3.1717
X3.1785Y-3.5717
X3.2283Y-3.8189
X4.8031Y-3.0315
X4.8031Y-3.2283
X4.8031Y-3.3748
X4.8031Y-3.5717
X5.2756Y-3.1717
X5.2756Y-3.5717
X5.4331Y-3.1717
X5.4331Y-3.5717
X6.7717Y-1.9882
X6.7717Y-2.185
T3
X0.9843Y-1.9291
X0.9843Y-2.2441
X1.2598Y-2.0866
X1.2992Y-1.5551
X1.4961Y-3.1496
X1.8701Y-3.8976
X2.2441Y-1.8898
X2.2441Y-2.0866
X2.2835Y-2.4803
X2.3622Y-2.874
X3.1496Y-2.7953
X4.8819Y-2.874
T4
X1.2008Y-3.3748
X1.2008Y-3.5717
X1.3976Y-3.3748
X1.3976Y-3.5717
X1.4476Y-1.5551
X1.5476Y-1.5551
X1.6476Y-1.5551
X1.7476Y-1.5551
X1.8701Y-3.3748
X1.8701Y-3.5717
X2.0563Y-1.5551
X2.0669Y-3.3748
X2.0669Y-3.5717
X2.1563Y-1.5551
X2.2563Y-1.5551
X2.3563Y-1.5551
X4.337Y-3.5717
X4.437Y-3.5717
X4.5276Y-1.5551
X4.537Y-3.5717
X4.6276Y-1.5551
X5.215Y-1.5551
X5.315Y-1.5551
X5.6362Y-3.5717
X5.7362Y-3.5717
X5.8362Y-3.5717
X6.378Y-1.9934
X6.378Y-2.1902
X6.4055Y-2.9134
X6.4055Y-3.3858
X6.8858Y-2.9134
X6.8858Y-3.3858
T5
X2.5433Y-1.7717
X2.5433Y-1.8717
X2.5433Y-1.9717
X2.5433Y-2.0717
X2.5433Y-2.1717
X2.5433Y-2.2717
X2.5433Y-2.3717
X2.5433Y-2.4717
X2.5433Y-2.5717
X2.5433Y-2.6717
X2.5433Y-2.7717
X2.5433Y-2.8717
X2.5433Y-2.9717
X2.5433Y-3.0717
X2.5433Y-3.1717
X2.5433Y-3.2717
X2.5433Y-3.3717
X2.5433Y-3.4717
X2.5433Y-3.5717
X3.5433Y-1.7717
X3.5433Y-1.8717
X3.5433Y-1.9717
X3.5433Y-2.0717
X3.5433Y-2.1717
X3.5433Y-2.2717
X3.5433Y-2.3717
X3.5433Y-2.4717
X3.5433Y-2.5717
X3.5433Y-2.6717
X3.5433Y-2.7717
X3.5433Y-2.8717
X3.5433Y-2.9717
X3.5433Y-3.0717
X3.5433Y-3.1717
X3.5433Y-3.2717
X3.5433Y-3.3717
X3.5433Y-3.4717
X3.5433Y-3.5717
X3.8583Y-3.1717
X3.8583Y-3.5717
X4.0945Y-3.1717
X4.0945Y-3.5717
X6.0512Y-3.1039
X6.0512Y-3.5039
T6
X6.4354Y-1.5768
X6.6354Y-1.5768
T7
X0.9449Y-1.2205
X0.9449Y-3.9764
X6.9685Y-1.2205
X6.9685Y-3.9764
T8
X4.437Y-2.9157
X5.7362Y-2.9157
T4
G00X6.3268Y-3.1437
M15
G01X6.3268Y-3.1555
M16
G05
T0
M30
